<?xml version="1.0" encoding="utf-8"?>
<!-- Generator: Adobe Illustrator 16.0.0, SVG Export Plug-In . SVG Version: 6.00 Build 0)  -->
<!DOCTYPE svg PUBLIC "-//W3C//DTD SVG 1.1//EN" "http://www.w3.org/Graphics/SVG/1.1/DTD/svg11.dtd">
<svg version="1.1" id="Layer_1" xmlns="http://www.w3.org/2000/svg" xmlns:xlink="http://www.w3.org/1999/xlink" x="0px" y="0px"
	 width="50px" height="50px" viewBox="0 0 50 50" enable-background="new 0 0 50 50" xml:space="preserve">
<path fill="#EDEDED" d="M24.164,32.875c-4.514,0-8.186-3.672-8.186-8.187c0-4.514,3.672-8.186,8.186-8.186
	c4.515,0,8.187,3.672,8.187,8.186C32.351,29.203,28.679,32.875,24.164,32.875 M24.164,17.669c-3.869,0-7.019,3.149-7.019,7.019
	s3.149,7.019,7.019,7.019c3.871,0,7.02-3.148,7.02-7.019S28.035,17.669,24.164,17.669"/>
<path fill="#EDEDED" d="M23.079,20.239c0-0.66,0.368-0.991,1.104-0.991c0.735,0,1.104,0.331,1.104,0.991
	c0,0.315-0.094,0.56-0.277,0.734c-0.183,0.176-0.46,0.263-0.826,0.263C23.447,21.236,23.079,20.904,23.079,20.239 M25.193,29.596
	h-2.028v-7.435h2.028V29.596z"/>
</svg>
