<?xml version="1.0" encoding="utf-8"?>
<!-- Generator: Adobe Illustrator 16.0.0, SVG Export Plug-In . SVG Version: 6.00 Build 0)  -->
<!DOCTYPE svg PUBLIC "-//W3C//DTD SVG 1.1//EN" "http://www.w3.org/Graphics/SVG/1.1/DTD/svg11.dtd">
<svg version="1.1" id="Layer_1" xmlns="http://www.w3.org/2000/svg" xmlns:xlink="http://www.w3.org/1999/xlink" x="0px" y="0px"
	 width="16.37px" height="16.37px" viewBox="0 0 16.37 16.37" enable-background="new 0 0 16.37 16.37" xml:space="preserve">
<path fill="#EDEDED" d="M8.185,16.371C3.671,16.371,0,12.699,0,8.185s3.672-8.186,8.186-8.186c4.514,0,8.186,3.672,8.186,8.186
	S12.699,16.371,8.185,16.371 M8.185,1.166c-3.869,0-7.019,3.149-7.019,7.019c0,3.87,3.149,7.018,7.019,7.018
	c3.872,0,7.02-3.148,7.02-7.018C15.205,4.315,12.057,1.166,8.185,1.166"/>
<path fill="#EDEDED" d="M7.1,3.735c0-0.66,0.368-0.991,1.104-0.991c0.735,0,1.104,0.331,1.104,0.991c0,0.315-0.094,0.56-0.277,0.734
	c-0.184,0.176-0.46,0.263-0.827,0.263C7.468,4.732,7.1,4.4,7.1,3.735 M9.215,13.092H7.186V5.658h2.029V13.092z"/>
</svg>
