<?xml version="1.0" encoding="utf-8"?>
<!-- Generator: Adobe Illustrator 19.2.0, SVG Export Plug-In . SVG Version: 6.00 Build 0)  -->
<svg version="1.1" id="Layer_1" xmlns="http://www.w3.org/2000/svg" xmlns:xlink="http://www.w3.org/1999/xlink" x="0px" y="0px"
	 viewBox="0 0 22.2 22.2" style="enable-background:new 0 0 22.2 22.2;" xml:space="preserve">
<style type="text/css">
	.st0{fill:#63C647;}
</style>
<g>
	<g>
		<path class="st0" d="M11.1,22.2C5,22.2,0,17.2,0,11.1S5,0,11.1,0s11.1,5,11.1,11.1S17.2,22.2,11.1,22.2z M11.1,2.2
			c-4.9,0-8.9,4-8.9,8.9s4,8.9,8.9,8.9s8.9-4,8.9-8.9S16,2.2,11.1,2.2z"/>
	</g>
</g>
<circle class="st0" cx="11.1" cy="15.1" r="1.3"/>
<ellipse class="st0" cx="11.2" cy="14.7" rx="0" ry="0.1"/>
<polygon class="st0" points="9.7,4.8 10.1,12.6 11.8,12.6 12.4,4.6 9.8,4.6 "/>
<polygon class="st0" points="12.4,4.8 12.1,12.6 10.4,12.6 9.7,4.6 12.4,4.6 "/>
</svg>
